<?xml version="1.0" encoding="UTF-8"?>
<!DOCTYPE svg PUBLIC "-//W3C//DTD SVG 1.1//EN" "http://www.w3.org/Graphics/SVG/1.1/DTD/svg11.dtd">
<!-- Creator: CorelDRAW 2020 (64-Bit Evaluation Version) -->
<svg xmlns="http://www.w3.org/2000/svg" xml:space="preserve" width="11.9679mm" height="11.9587mm" version="1.1" shape-rendering="geometricPrecision" text-rendering="geometricPrecision" image-rendering="optimizeQuality" fill-rule="evenodd" clip-rule="evenodd"
viewBox="0 0 97.54 97.46"
 xmlns:xlink="http://www.w3.org/1999/xlink"
 xmlns:xodm="http://www.corel.com/coreldraw/odm/2003">
 <g id="Layer_x0020_1">
  <metadata id="CorelCorpID_0Corel-Layer"/>
  <g id="_2336403455504">
   <path fill="#0BA49C" fill-rule="nonzero" d="M43.01 86.89c9.13,0 17.4,-3.53 23.37,-9.26 5.95,-5.68 9.63,-13.54 9.63,-22.23 0,-0.73 -0.02,-1.41 -0.07,-2.04 -0.5,-7.66 -3.93,-14.13 -9.35,-18.7 -5.46,-4.61 -12.95,-7.29 -21.57,-7.29 -0.97,0 -1.93,0.02 -2.85,0.09l-0.26 -3.88c1.07,-0.07 2.13,-0.11 3.12,-0.11 9.54,0 17.93,3.03 24.07,8.21 6.21,5.24 10.12,12.66 10.71,21.42 0.04,0.79 0.09,1.56 0.09,2.3 0,9.79 -4.15,18.63 -10.84,25.04 -6.67,6.39 -15.89,10.34 -26.05,10.34l0 -3.91 0 0.02z"/>
   <path fill="#372C6B" fill-rule="nonzero" d="M97.52 91.36l0 6.1 -97.52 0 0 -6.1c0,-3.36 2.72,-6.1 6.1,-6.1l0 -6.1 -6.1 0 0 -6.1 36.58 0 0 6.1 -6.1 0 0 6.1 18.28 0c16.83,0 30.48,-13.65 30.48,-30.48 0,-16.83 -13.65,-30.48 -30.48,-30.48l-4.81 0 -4.08 11.23 -23.08 -8.4 8.4 -23.09c1.16,-3.2 4.67,-4.83 7.88,-3.69l11.54 4.21c3.09,1.1 4.67,4.43 3.73,7.53l0.44 0c23.57,0 42.66,19.11 42.66,42.66 0,11.98 -4.98,22.73 -12.95,30.48l12.95 0c3.36,0 6.1,2.72 6.1,6.1l-0.02 0.02z"/>
   <path fill="#0BA49C" fill-rule="nonzero" d="M16.24 46.58l11.54 4.21c3.18,1.16 6.71,-0.48 7.88,-3.69l2.11 -5.79 -23.08 -8.41 -2.11 5.79c-1.16,3.18 0.48,6.71 3.67,7.88z"/>
   <polygon fill="#0BA49C" fill-rule="nonzero" points="6.28,68.89 30.46,68.89 30.44,73.08 6.28,73.08 "/>
   <path fill="#E94B60" fill-rule="nonzero" d="M17.76 52.36c0.85,0.01 1.57,0.21 2.16,0.58 0.59,0.37 0.88,0.81 0.88,1.32 -0.01,0.51 -0.32,0.94 -0.92,1.29 -0.6,0.35 -1.33,0.52 -2.18,0.5 -0.85,-0.01 -1.57,-0.21 -2.16,-0.58 -0.59,-0.37 -0.88,-0.81 -0.88,-1.32 0.01,-0.51 0.32,-0.94 0.92,-1.29 0.6,-0.35 1.33,-0.52 2.18,-0.5z"/>
   <polygon fill="#FEFEFE" fill-rule="nonzero" points="15.89,54.19 16.5,54.2 16.49,54.77 15.88,54.76 "/>
   <path fill="#E03052" fill-rule="nonzero" d="M17.71 55.43c-1.52,-0.03 -2.77,-0.71 -3,-1.59 -0.03,0.1 -0.05,0.2 -0.05,0.31 -0.02,1.02 1.34,1.86 3.03,1.89 1.69,0.03 3.08,-0.77 3.1,-1.79 0,-0.11 -0.01,-0.21 -0.04,-0.31 -0.26,0.87 -1.53,1.51 -3.05,1.48z"/>
   <path fill="#E94B60" fill-rule="nonzero" d="M21.97 57.34c0.85,0.01 1.57,0.21 2.16,0.58 0.59,0.37 0.88,0.81 0.87,1.32 -0.01,0.51 -0.32,0.94 -0.92,1.28 -0.6,0.35 -1.33,0.52 -2.18,0.5 -0.85,-0.01 -1.57,-0.21 -2.16,-0.58 -0.59,-0.37 -0.88,-0.81 -0.87,-1.32 0.01,-0.51 0.32,-0.94 0.92,-1.28 0.6,-0.35 1.33,-0.52 2.18,-0.5z"/>
   <path fill="#E03052" fill-rule="nonzero" d="M21.91 60.41c-1.52,-0.03 -2.77,-0.71 -3,-1.59 -0.03,0.1 -0.05,0.2 -0.05,0.31 -0.02,1.02 1.34,1.86 3.03,1.89 1.69,0.03 3.08,-0.77 3.1,-1.79 0,-0.1 -0.01,-0.21 -0.04,-0.31 -0.26,0.86 -1.53,1.51 -3.05,1.48z"/>
   <path fill="#E94B60" fill-rule="nonzero" d="M17.59 62.17c0.85,0.01 1.57,0.21 2.16,0.58 0.59,0.37 0.88,0.81 0.88,1.32 -0.01,0.51 -0.32,0.94 -0.92,1.28 -0.61,0.35 -1.33,0.52 -2.18,0.5 -0.85,-0.01 -1.57,-0.21 -2.16,-0.58 -0.59,-0.37 -0.88,-0.81 -0.87,-1.32 0.01,-0.51 0.31,-0.94 0.92,-1.29 0.6,-0.35 1.33,-0.52 2.18,-0.5z"/>
   <polygon fill="#FEFEFE" fill-rule="nonzero" points="15.72,64 16.33,64.01 16.32,64.58 15.71,64.57 "/>
   <path fill="#E03052" fill-rule="nonzero" d="M17.54 65.24c-1.52,-0.03 -2.77,-0.71 -3,-1.59 -0.03,0.1 -0.05,0.2 -0.05,0.31 -0.02,1.02 1.34,1.86 3.03,1.89 1.69,0.03 3.08,-0.77 3.1,-1.79 0,-0.1 -0.01,-0.21 -0.04,-0.31 -0.26,0.87 -1.53,1.51 -3.05,1.48z"/>
   <path fill="#E94B60" fill-rule="nonzero" d="M26.92 54.36c0.34,0.01 0.63,0.13 0.86,0.37 0.24,0.24 0.35,0.54 0.34,0.87 -0.01,0.34 -0.13,0.63 -0.37,0.86 -0.24,0.24 -0.53,0.35 -0.87,0.34 -0.34,-0.01 -0.63,-0.13 -0.86,-0.37 -0.23,-0.24 -0.35,-0.54 -0.34,-0.87 0.01,-0.34 0.13,-0.63 0.37,-0.86 0.24,-0.24 0.53,-0.35 0.87,-0.34z"/>
   <path fill="#E03052" fill-rule="nonzero" d="M27.01 54.37c0.35,0.16 0.6,0.52 0.59,0.93 -0.01,0.55 -0.46,0.99 -1.01,0.98 -0.41,-0.01 -0.76,-0.26 -0.91,-0.62 0.03,0.64 0.55,1.15 1.2,1.16 0.68,0.01 1.24,-0.53 1.25,-1.2 0.01,-0.65 -0.48,-1.19 -1.12,-1.24z"/>
   <path fill="#E94B60" fill-rule="nonzero" d="M12.12 59.62c0.34,0.01 0.63,0.13 0.86,0.37 0.24,0.24 0.35,0.53 0.34,0.87 -0.01,0.34 -0.13,0.63 -0.37,0.86 -0.24,0.24 -0.54,0.35 -0.87,0.34 -0.34,-0.01 -0.63,-0.13 -0.86,-0.37 -0.24,-0.24 -0.35,-0.54 -0.34,-0.87 0.01,-0.34 0.13,-0.63 0.37,-0.86 0.24,-0.24 0.53,-0.35 0.87,-0.34z"/>
   <path fill="#E03052" fill-rule="nonzero" d="M12.2 59.63c0.35,0.16 0.6,0.52 0.59,0.93 -0.01,0.55 -0.46,0.99 -1.01,0.98 -0.41,-0.01 -0.76,-0.26 -0.91,-0.62 0.03,0.64 0.56,1.15 1.2,1.16 0.68,0.01 1.23,-0.53 1.25,-1.21 0.01,-0.65 -0.48,-1.19 -1.12,-1.24z"/>
   <path fill="#E94B60" fill-rule="nonzero" d="M16.44 57.86c0.41,0.01 0.61,0.22 0.6,0.62 -0.01,0.41 -0.22,0.61 -0.62,0.6 -0.41,-0.01 -0.61,-0.22 -0.6,-0.62 0.01,-0.41 0.22,-0.61 0.62,-0.6z"/>
   <path fill="#E94B60" fill-rule="nonzero" d="M23.1 62.88c0.41,0.01 0.61,0.22 0.6,0.62 -0.01,0.41 -0.22,0.61 -0.63,0.6 -0.41,-0.01 -0.61,-0.21 -0.6,-0.62 0.01,-0.41 0.22,-0.61 0.62,-0.6z"/>
   <path fill="#FEFEFE" fill-rule="nonzero" d="M17.74 53.61c-0.62,-0.01 -0.93,-0.26 -0.93,-0.34l-0.58 -0.01c-0.01,0.51 0.63,0.91 1.5,0.93 0.86,0.01 1.52,-0.36 1.53,-0.87l-0.57 -0.01c-0,0.08 -0.33,0.32 -0.94,0.31z"/>
   <polygon fill="#FEFEFE" fill-rule="nonzero" points="20.09,59.17 20.71,59.18 20.7,59.75 20.08,59.74 "/>
   <path fill="#FEFEFE" fill-rule="nonzero" d="M21.95 58.59c-0.62,-0.01 -0.94,-0.26 -0.93,-0.34l-0.57 -0.01c-0.01,0.51 0.63,0.91 1.5,0.93 0.86,0.02 1.52,-0.36 1.53,-0.87l-0.57 -0.01c-0,0.08 -0.33,0.32 -0.94,0.31z"/>
   <polygon fill="#FEFEFE" fill-rule="nonzero" points="26.6,55.3 27.21,55.31 27.2,55.88 26.59,55.87 "/>
   <polygon fill="#FEFEFE" fill-rule="nonzero" points="11.79,60.56 12.41,60.57 12.39,61.14 11.78,61.13 "/>
  </g>
 </g>
</svg>
