<svg xmlns="http://www.w3.org/2000/svg" xmlns:xlink="http://www.w3.org/1999/xlink" width="24" height="24" viewBox="0 0 24 24"><defs><clipPath id="a"><path d="M10,20A10,10,0,1,1,20,10,10.011,10.011,0,0,1,10,20Zm0-8.586h0l1.293,1.293a1,1,0,0,0,1.414,0,1,1,0,0,0,0-1.414L11.414,10l1.293-1.293a1,1,0,1,0-1.414-1.414L10,8.586,8.707,7.293A1,1,0,0,0,7.293,8.707L8.586,10,7.293,11.293A1,1,0,0,0,8,13a.99.99,0,0,0,.707-.292L10,11.415Z" transform="translate(2 2)" fill="#dc3545"/></clipPath></defs><path d="M10,20A10,10,0,1,1,20,10,10.011,10.011,0,0,1,10,20Zm0-8.586h0l1.293,1.293a1,1,0,0,0,1.414,0,1,1,0,0,0,0-1.414L11.414,10l1.293-1.293a1,1,0,1,0-1.414-1.414L10,8.586,8.707,7.293A1,1,0,0,0,7.293,8.707L8.586,10,7.293,11.293A1,1,0,0,0,8,13a.99.99,0,0,0,.707-.292L10,11.415Z" transform="translate(2 2)" fill="#dc3545"/></svg>