
<svg width="17" height="17" viewBox="0 0 17 17" fill="none" xmlns="http://www.w3.org/2000/svg">
<g clip-path="url(#clip0_3792_6)">
<path d="M16.116 8.057C16.1162 9.6506 15.6439 11.2085 14.7587 12.5336C13.8736 13.8588 12.6154 14.8918 11.1433 15.502C9.67113 16.1121 8.05111 16.2721 6.48805 15.9616C4.92499 15.6511 3.4891 14.8841 2.3619 13.7576C1.23471 12.6311 0.466849 11.1957 0.155397 9.63286C-0.156055 8.06999 0.00289106 6.44987 0.612139 4.97734C1.22139 3.5048 2.25358 2.24598 3.57821 1.36003C4.90283 0.474083 6.46041 0.000792068 8.054 9.94158e-07C9.11243 -0.000524874 10.1606 0.207576 11.1385 0.612404C12.1165 1.01723 13.005 1.61085 13.7534 2.35932C14.5018 3.10778 15.0953 3.99641 15.5 4.97441C15.9047 5.9524 16.1127 7.00058 16.112 8.059L16.116 8.057ZM14.857 8.057C14.857 6.71209 14.4582 5.39738 13.711 4.27912C12.9638 3.16087 11.9018 2.2893 10.6593 1.77462C9.41671 1.25994 8.04946 1.12528 6.73039 1.38766C5.41132 1.65004 4.19967 2.29768 3.24868 3.24867C2.29768 4.19967 1.65004 5.41132 1.38766 6.73039C1.12528 8.04946 1.25995 9.41671 1.77462 10.6592C2.2893 11.9018 3.16087 12.9638 4.27913 13.711C5.39738 14.4582 6.71209 14.857 8.057 14.857C9.85944 14.8559 11.5877 14.1393 12.862 12.8646C14.1364 11.5899 14.8525 9.86143 14.853 8.059L14.857 8.057Z" fill="#FFA800"/>
<path d="M8 3L8 8.5L11 11.5" stroke="#FFA800" stroke-width="1.3" stroke-linecap="round" stroke-linejoin="round"/>
</g>
<defs>
<clipPath id="clip0_3792_6">
<rect width="16.116" height="16.116" fill="white"/>
</clipPath>
</defs>
</svg>
