<svg fill="#069a98" xmlns="http://www.w3.org/2000/svg" width="27.5" height="22.955" viewBox="0 0 27.5 22.955"><g transform="translate(-0.25 -3.25)"><path d="M19.682,30.568a1.25,1.25,0,0,1-1.25-1.25V27.045a3.3,3.3,0,0,0-3.3-3.3H6.045a3.3,3.3,0,0,0-3.3,3.3v2.273a1.25,1.25,0,0,1-2.5,0V27.045a5.8,5.8,0,0,1,5.8-5.8h9.091a5.8,5.8,0,0,1,5.8,5.8v2.273A1.25,1.25,0,0,1,19.682,30.568Z" transform="translate(0 -4.364)"/><path d="M12.045,14.841a5.8,5.8,0,1,1,5.8-5.8A5.8,5.8,0,0,1,12.045,14.841Zm0-9.091a3.3,3.3,0,1,0,3.3,3.3A3.3,3.3,0,0,0,12.045,5.75Z" transform="translate(-1.455)"/></g></svg>