<svg xmlns="http://www.w3.org/2000/svg" width="29.87" height="29.87" viewBox="0 0 29.87 29.87"><g transform="translate(-0.25 -0.25)"><path d="M18,12.25A5.75,5.75,0,1,1,12.25,18,5.757,5.757,0,0,1,18,12.25Zm0,9A3.25,3.25,0,1,0,14.75,18,3.254,3.254,0,0,0,18,21.25Z" transform="translate(-2.815 -2.815)"/><path d="M15.285,30.12a3.742,3.742,0,0,1-3.738-3.738v-.094a.8.8,0,0,0-.525-.723l-.073-.03a.8.8,0,0,0-.882.157L10,25.76A3.74,3.74,0,1,1,4.71,20.471l.068-.068a.8.8,0,0,0,.157-.882l-.005-.012a.8.8,0,0,0-.735-.487H3.988a3.738,3.738,0,1,1,0-7.476h.094a.8.8,0,0,0,.723-.525q.014-.037.03-.073a.8.8,0,0,0-.157-.882L4.61,10A3.74,3.74,0,1,1,9.9,4.71l.068.068a.8.8,0,0,0,.882.157,1.25,1.25,0,0,1,.248-.08.8.8,0,0,0,.351-.66V3.988a3.738,3.738,0,0,1,7.476,0V4.1a.8.8,0,0,0,.487.73l.012.005a.8.8,0,0,0,.882-.157l.068-.068A3.74,3.74,0,1,1,25.66,9.9l-.068.068a.8.8,0,0,0-.157.882,1.25,1.25,0,0,1,.08.248.8.8,0,0,0,.66.351h.206a3.738,3.738,0,1,1,0,7.476H26.27a.8.8,0,0,0-.73.487l-.005.012a.8.8,0,0,0,.157.882l.068.068a3.74,3.74,0,1,1-5.289,5.288l-.068-.068a.8.8,0,0,0-.882-.157l-.012.005a.8.8,0,0,0-.487.735v.206A3.742,3.742,0,0,1,15.285,30.12Zm-3.363-6.888a3.284,3.284,0,0,1,2.125,3.009q0,.015,0,.029v.112a1.238,1.238,0,1,0,2.476,0V26.17a3.317,3.317,0,0,1,5.632-2.362l.01.01.075.075a1.24,1.24,0,1,0,1.753-1.753l-.075-.075-.01-.01a3.319,3.319,0,0,1,2.357-5.632h.117a1.238,1.238,0,1,0,0-2.476H26.17a3.3,3.3,0,0,1-3.027-2,1.25,1.25,0,0,1-.09-.329,3.285,3.285,0,0,1,.756-3.4l.01-.01.075-.075a1.24,1.24,0,1,0-1.753-1.753l-.075.075-.01.01a3.319,3.319,0,0,1-5.632-2.357V3.988a1.238,1.238,0,0,0-2.476,0V4.2a3.3,3.3,0,0,1-2,3.028,1.25,1.25,0,0,1-.329.09,3.3,3.3,0,0,1-3.4-.756l-.01-.01L8.13,6.477A1.24,1.24,0,1,0,6.377,8.229l.075.075.01.01a3.287,3.287,0,0,1,.676,3.607,3.284,3.284,0,0,1-3.009,2.125H3.988a1.238,1.238,0,1,0,0,2.476H4.2a3.319,3.319,0,0,1,2.362,5.632l-.01.01-.075.075a1.24,1.24,0,1,0,1.753,1.753l.075-.075.01-.01a3.3,3.3,0,0,1,3.607-.676Z"/></g></svg>