<svg xmlns="http://www.w3.org/2000/svg" width="26.8" height="29.5" viewBox="0 0 26.8 29.5"><g transform="translate(-3.25 -1.75)"><path d="M16.65,1.75a1.248,1.248,0,0,1,.767.263l12.15,9.45a1.25,1.25,0,0,1,.483.987V27.3a3.954,3.954,0,0,1-3.95,3.95H7.2A3.954,3.954,0,0,1,3.25,27.3V12.45a1.25,1.25,0,0,1,.483-.987l12.15-9.45A1.248,1.248,0,0,1,16.65,1.75Zm10.9,11.311L16.65,4.584,5.75,13.061V27.3A1.452,1.452,0,0,0,7.2,28.75H26.1a1.452,1.452,0,0,0,1.45-1.45Z" transform="translate(0 0)"/><path d="M21.6,32.75a1.25,1.25,0,0,1-1.25-1.25V19.25h-5.6V31.5a1.25,1.25,0,1,1-2.5,0V18a1.25,1.25,0,0,1,1.25-1.25h8.1A1.25,1.25,0,0,1,22.85,18V31.5A1.25,1.25,0,0,1,21.6,32.75Z" transform="translate(-0.9 -1.5)"/></g></svg>