<svg xmlns="http://www.w3.org/2000/svg" width="32.68" height="32.682" viewBox="0 0 32.68 32.682"><g transform="translate(-1.75 -1.568)"><path d="M27,34.25H6A4.255,4.255,0,0,1,1.75,30V9A4.255,4.255,0,0,1,6,4.75H16.5a1.25,1.25,0,0,1,0,2.5H6A1.752,1.752,0,0,0,4.25,9V30A1.752,1.752,0,0,0,6,31.75H27A1.752,1.752,0,0,0,28.75,30V19.5a1.25,1.25,0,0,1,2.5,0V30A4.255,4.255,0,0,1,27,34.25Z"/><path d="M30,1.568a4.432,4.432,0,0,1,3.134,7.566l-14.25,14.25a1.25,1.25,0,0,1-.581.329l-6,1.5A1.25,1.25,0,0,1,10.787,23.7l1.5-6a1.25,1.25,0,0,1,.329-.581l14.25-14.25A4.4,4.4,0,0,1,30,1.568Zm-12.639,19.8L31.366,7.366a1.932,1.932,0,0,0-2.732-2.732L14.629,18.639l-.911,3.643Z"/></g></svg>