<svg fill="rgb(0 0 0 / 40%)"  xmlns="http://www.w3.org/2000/svg" width="27.5" height="27.5" viewBox="0 0 27.5 27.5"><g transform="translate(-3.25 -3.25)"><path d="M15.611,3.25a12.361,12.361,0,0,1,8.741,21.1A12.361,12.361,0,0,1,6.87,6.87,12.28,12.28,0,0,1,15.611,3.25Zm0,22.222A9.861,9.861,0,1,0,5.75,15.611,9.872,9.872,0,0,0,15.611,25.472Z"/><path d="M31.017,32.267a1.246,1.246,0,0,1-.884-.366l-6.042-6.042a1.25,1.25,0,0,1,1.768-1.768L31.9,30.133a1.25,1.25,0,0,1-.884,2.134Z" transform="translate(-1.517 -1.517)"/></g></svg>