
<svg xmlns="http://www.w3.org/2000/svg" xmlns:xlink="http://www.w3.org/1999/xlink" width="24" height="24" viewBox="0 0 24 24"><defs><clipPath id="a"><path d="M17,18a.994.994,0,0,1-.707-.293l-3.4-3.395A7.91,7.91,0,0,1,8,16a8,8,0,1,1,8-8,7.909,7.909,0,0,1-1.688,4.9l3.395,3.4A1,1,0,0,1,17,18ZM8,2a6,6,0,1,0,6,6A6.007,6.007,0,0,0,8,2Z" transform="translate(3 3)" fill="#223345"/></clipPath></defs><path d="M17,18a.994.994,0,0,1-.707-.293l-3.4-3.395A7.91,7.91,0,0,1,8,16a8,8,0,1,1,8-8,7.909,7.909,0,0,1-1.688,4.9l3.395,3.4A1,1,0,0,1,17,18ZM8,2a6,6,0,1,0,6,6A6.007,6.007,0,0,0,8,2Z" transform="translate(3 3)" fill="rgb(0 0 0 / 40%)"/></svg>