<svg xmlns="http://www.w3.org/2000/svg" width="29.072" height="29.5" viewBox="0 0 29.072 29.5"><path d="M34.508,40.75H15.2a3.954,3.954,0,0,1-3.95-3.95V27.35A3.954,3.954,0,0,1,15.2,23.4h3.238l5.07-11.408a1.25,1.25,0,0,1,1.142-.742,5.3,5.3,0,0,1,5.3,5.3V20.7h6.385a3.95,3.95,0,0,1,3.942,4.543L38.413,37.394a3.95,3.95,0,0,1-3.9,3.356ZM20.5,38.25H34.508a1.456,1.456,0,0,0,1.434-1.233l1.863-12.152a1.45,1.45,0,0,0-1.45-1.666H28.7a1.25,1.25,0,0,1-1.25-1.25v-5.4a2.8,2.8,0,0,0-2.034-2.695L20.5,24.915ZM15.2,25.9a1.452,1.452,0,0,0-1.45,1.45V36.8a1.452,1.452,0,0,0,1.45,1.45H18V25.9Z" transform="translate(-11.25 -11.25)" fill="#04a29b"/></svg>