<svg xmlns="http://www.w3.org/2000/svg" width="110" height="154" viewBox="0 0 110 154"><path d="M105.875,24.25A4.125,4.125,0,0,0,110,20.125V6.375a4.125,4.125,0,0,0-4.125-4.125H4.125A4.125,4.125,0,0,0,0,6.375V21.757a4.125,4.125,0,0,0,4.125,4.125H33.44c9.387,0,16.59,3.423,20.958,9.368H4.125A4.125,4.125,0,0,0,0,39.375v13.75A4.125,4.125,0,0,0,4.125,57.25H58.7C56.561,69.655,47.367,77.4,33,77.4H4.125A4.125,4.125,0,0,0,0,81.53V99.753a4.126,4.126,0,0,0,1.327,3.031l56.737,52.372a4.125,4.125,0,0,0,2.8,1.094H89.242a4.125,4.125,0,0,0,2.8-7.156L40.174,101.218c26.3-.8,45.081-18.355,47.547-43.968h18.154A4.125,4.125,0,0,0,110,53.125V39.375a4.125,4.125,0,0,0-4.125-4.125H85.7a47.085,47.085,0,0,0-4.9-11Z" transform="translate(0 -2.25)" opacity="0.07"/></svg>