<svg xmlns="http://www.w3.org/2000/svg" width="169.146" height="40" viewBox="0 0 169.146 40"><g transform="translate(-0.102 -0.323)"><path d="M51.278,29.323H63.229v-3.6h-7.7V12.163H51.278Z" fill="#fff"/><path d="M70.311,26.923c-1.7,0-2.592-1.488-2.592-3.72s.888-3.744,2.592-3.744,2.616,1.512,2.616,3.744S72.015,26.923,70.311,26.923Zm.024,2.784a6.263,6.263,0,0,0,6.552-6.5,6.564,6.564,0,0,0-13.128,0A6.3,6.3,0,0,0,70.335,29.707Z" fill="#fff"/><path d="M83.741,33.571A6.715,6.715,0,0,0,88.253,32.2a5.269,5.269,0,0,0,1.632-4.08V17.035H86.141v1.32h-.048a3.942,3.942,0,0,0-3.456-1.68c-3.048,0-5.16,2.544-5.16,6.144,0,3.768,2.568,5.832,5.328,5.832a3.918,3.918,0,0,0,3.144-1.416h.1v1.224a2.075,2.075,0,0,1-2.352,2.352c-1.3,0-1.944-.552-2.16-1.2H77.741C78.125,32.179,80.357,33.571,83.741,33.571Zm-.024-7.824c-1.464,0-2.424-1.2-2.424-3.048,0-1.872.96-3.072,2.424-3.072,1.632,0,2.5,1.392,2.5,3.048C86.213,24.4,85.421,25.747,83.717,25.747Z" fill="#fff"/><path d="M97.583,26.923c-1.7,0-2.592-1.488-2.592-3.72s.888-3.744,2.592-3.744S100.2,20.971,100.2,23.2,99.287,26.923,97.583,26.923Zm.024,2.784a6.262,6.262,0,0,0,6.552-6.5,6.564,6.564,0,0,0-13.128,0A6.3,6.3,0,0,0,97.607,29.707Z" fill="#fff"/><path d="M105.3,29.323h3.912V17.035H105.3Zm0-13.992h3.912V12.163H105.3Z" fill="#fff"/><path d="M110.911,33.379h3.912V28.051h.048a4.09,4.09,0,0,0,3.48,1.656c3.216,0,5.352-2.544,5.352-6.528,0-3.7-1.992-6.5-5.256-6.5a4.468,4.468,0,0,0-3.72,1.848h-.072V17.035h-3.744Zm6.432-6.7c-1.68,0-2.64-1.368-2.64-3.36s.864-3.5,2.568-3.5c1.68,0,2.472,1.392,2.472,3.5C119.743,25.411,118.831,26.683,117.343,26.683Z" fill="#fff"/><path d="M130.072,29.707c3.216,0,5.592-1.392,5.592-4.08,0-3.144-2.544-3.7-4.7-4.056-1.56-.288-2.952-.408-2.952-1.272,0-.768.744-1.128,1.7-1.128,1.08,0,1.824.336,1.968,1.44h3.6c-.192-2.424-2.064-3.936-5.544-3.936-2.9,0-5.3,1.344-5.3,3.936,0,2.88,2.28,3.456,4.416,3.816,1.632.288,3.12.408,3.12,1.512,0,.792-.744,1.224-1.92,1.224a1.987,1.987,0,0,1-2.256-1.824h-3.7C124.216,28.051,126.472,29.707,130.072,29.707Z" fill="#fff"/><path d="M140.978,29.683a4.2,4.2,0,0,0,3.672-1.872h.072v1.512h3.744V17.035h-3.912V23.9a2.186,2.186,0,0,1-2.16,2.472c-1.248,0-1.848-.744-1.848-2.088V17.035h-3.888V25.1C136.658,27.835,138.146,29.683,140.978,29.683Z" fill="#fff"/><path d="M150.168,29.323h3.912V22.435c0-1.464.72-2.5,1.944-2.5,1.176,0,1.728.768,1.728,2.088v7.3h3.912V22.435c0-1.464.7-2.5,1.944-2.5,1.176,0,1.728.768,1.728,2.088v7.3h3.912V21.331c0-2.76-1.392-4.656-4.176-4.656a4.371,4.371,0,0,0-3.864,2.16h-.048a3.68,3.68,0,0,0-3.456-2.16,4.1,4.1,0,0,0-3.72,2.112h-.072V17.035h-3.744Z" fill="#fff"/><path d="M20.1,40.323a20,20,0,1,0-20-20A20,20,0,0,0,20.1,40.323Zm3.087-24.547a4.366,4.366,0,1,0-6.174,0L20.1,18.863Zm1.46,7.634a4.366,4.366,0,1,0,0-6.174l-3.087,3.087Zm-1.46,7.634a4.366,4.366,0,0,0,0-6.174L20.1,21.784l-3.087,3.087a4.366,4.366,0,1,0,6.174,6.174ZM9.38,23.41a4.366,4.366,0,0,1,6.174-6.174l3.087,3.087L15.554,23.41A4.366,4.366,0,0,1,9.38,23.41Z" fill="#fff" fill-rule="evenodd"/></g></svg>