<svg xmlns="http://www.w3.org/2000/svg" width="111.28" height="40" viewBox="0 0 111.28 40"><g transform="translate(-5578 -10059)"><g transform="translate(5577.898 10058.677)"><path d="M20.1,40.323a20,20,0,1,0-20-20A20,20,0,0,0,20.1,40.323Zm3.087-24.547a4.366,4.366,0,1,0-6.174,0L20.1,18.863Zm1.46,7.634a4.366,4.366,0,1,0,0-6.174l-3.087,3.087Zm-1.46,7.634a4.366,4.366,0,0,0,0-6.174L20.1,21.784l-3.087,3.087a4.366,4.366,0,1,0,6.174,6.174ZM9.38,23.41a4.366,4.366,0,0,1,6.174-6.174l3.087,3.087L15.554,23.41A4.366,4.366,0,0,1,9.38,23.41Z" fill="#018c6a" fill-rule="evenodd"/></g><path d="M1.18-13.8V0h9.74V-2.28H3.8V-13.8ZM20.99-9.52a5.163,5.163,0,0,0-3.41-1,5.252,5.252,0,0,0-3.15.85,2.725,2.725,0,0,0-1.17,2.33v.06h2.36v-.06a1.127,1.127,0,0,1,.45-.92,2.327,2.327,0,0,1,1.45-.36q2.2,0,2.2,1.86v.62H16.94a4.851,4.851,0,0,0-2.97.78A2.662,2.662,0,0,0,12.94-3.1a2.979,2.979,0,0,0,.97,2.38,4.241,4.241,0,0,0,2.85.84,5.081,5.081,0,0,0,1.7-.25,3.812,3.812,0,0,0,1.32-.83V0h2.4V-6.64A3.551,3.551,0,0,0,20.99-9.52ZM19.72-3.8q0,1.94-2.42,1.94a2.589,2.589,0,0,1-1.47-.34,1.1,1.1,0,0,1-.49-.96,1.059,1.059,0,0,1,.5-.97,3.043,3.043,0,0,1,1.56-.31h2.32Zm8.04,2.74A3.7,3.7,0,0,0,30.7.18a3.958,3.958,0,0,0,2.1-.56,3.83,3.83,0,0,0,1.45-1.65,5.868,5.868,0,0,0,.53-2.59v-1.3a4.945,4.945,0,0,0-1.1-3.46,3.819,3.819,0,0,0-2.96-1.2,3.745,3.745,0,0,0-1.66.36,3.488,3.488,0,0,0-1.24,1V-13.8H25.34V0h2.42Zm3.98-1.65a1.992,1.992,0,0,1-1.62.67,2.177,2.177,0,0,1-1.68-.67,2.56,2.56,0,0,1-.62-1.81V-5.84a2.705,2.705,0,0,1,.6-1.87,2.114,2.114,0,0,1,1.66-.67q2.22,0,2.22,2.58v1.08A3.076,3.076,0,0,1,31.74-2.71Zm6.12-11.15v1.98h2.46v-1.98Zm0,3.46V0h2.46V-10.4Zm9.32-1.44a1.482,1.482,0,0,1,1.02-.28h.92V-13.8H47.5a3.2,3.2,0,0,0-2.3.75,2.956,2.956,0,0,0-.78,2.23v.42h-1.4v1.74h1.4V0h2.46V-8.66h2.24V-10.4H46.88v-.52A1.212,1.212,0,0,1,47.18-11.84Zm14.1,1.44H58.7L56.22-3.44l-2.7-6.96H50.84L55.08-.22l-.06.18a1.326,1.326,0,0,1-.53.71,2.194,2.194,0,0,1-1.05.19H52.36V3.08h.96a4.285,4.285,0,0,0,2.24-.52A3.2,3.2,0,0,0,56.86.9Z" transform="translate(5628 10086)" fill="#242424"/></g></svg>