<svg xmlns="http://www.w3.org/2000/svg" width="29.001" height="19.372" viewBox="0 0 29.001 19.372"><path d="M35.45,17.312V34.758a1.243,1.243,0,0,1-.283.68.926.926,0,0,1-.68.284H7.412a.923.923,0,0,1-.68-.283,1.238,1.238,0,0,1-.283-.68V17.312a1.241,1.241,0,0,1,.283-.68.927.927,0,0,1,.68-.283H34.487a.929.929,0,0,1,.68.283,1.248,1.248,0,0,1,.284.68ZM33.524,29.887v-7.7a3.705,3.705,0,0,1-2.719-1.133,3.771,3.771,0,0,1-1.133-2.776H12.227a3.774,3.774,0,0,1-1.133,2.776,3.708,3.708,0,0,1-2.719,1.133v7.7a3.711,3.711,0,0,1,2.719,1.133A3.776,3.776,0,0,1,12.227,33.8H29.672a3.773,3.773,0,0,1,1.133-2.776,3.71,3.71,0,0,1,2.719-1.132Zm-7.76-3.852a9.927,9.927,0,0,1-.283,2.153,7.259,7.259,0,0,1-.906,2.039,4.923,4.923,0,0,1-1.529,1.529,4.16,4.16,0,0,1-4.191,0,4.906,4.906,0,0,1-1.529-1.529,7.24,7.24,0,0,1-.906-2.039,9.879,9.879,0,0,1-.283-2.153,9.888,9.888,0,0,1,.283-2.153,7.236,7.236,0,0,1,.906-2.039,4.923,4.923,0,0,1,1.529-1.529,4.159,4.159,0,0,1,4.191,0,4.948,4.948,0,0,1,1.529,1.529,7.261,7.261,0,0,1,.906,2.039,9.917,9.917,0,0,1,.284,2.153Zm-7.7,3.852h5.777V28.471H21.913v-6.8h-1.7l-2.266,2.1,1.189,1.189a9.274,9.274,0,0,0,.793-.85h.057v4.361H18.061v1.416Z" transform="translate(-6.449 -16.35)"/></svg>