<svg xmlns="http://www.w3.org/2000/svg" width="59.717" height="50.067" viewBox="0 0 59.717 50.067"><g transform="translate(0 512)"><path d="M0-496.138v15.862H59.716V-512H0Zm52.718,0v8.864H7V-505h45.72Z"/><path d="M90-416.635v5.365h6.123c3.371,0,6.123-.035,6.123-.07a3.361,3.361,0,0,0-.338-.548,10.414,10.414,0,0,1-1.19-2.764,10.4,10.4,0,0,1-.163-1.983,10.4,10.4,0,0,1,.163-1.983,10.413,10.413,0,0,1,1.19-2.764,3.363,3.363,0,0,0,.338-.548c0-.035-2.753-.07-6.123-.07H90Zm7,0v1.75H93.5v-3.5H97Z" transform="translate(-79.503 -79.503)"/><path d="M214.561-421.657a5.444,5.444,0,0,0-4.234,6.018,5.4,5.4,0,0,0,6.053,4.49,5.4,5.4,0,0,0,4.49-6.042A5.39,5.39,0,0,0,214.561-421.657Z" transform="translate(-185.741 -79.717)"/><path d="M317-421.93a3.362,3.362,0,0,0,.338.548,10.414,10.414,0,0,1,1.19,2.764,10.4,10.4,0,0,1,.163,1.983,10.4,10.4,0,0,1-.163,1.983,10.414,10.414,0,0,1-1.19,2.764,3.361,3.361,0,0,0-.338.548c0,.035,2.753.07,6.123.07h6.123V-422h-6.123C319.753-422,317-421.965,317-421.93Zm8.747,5.3v1.75h-3.5v-3.5h3.5Z" transform="translate(-280.027 -79.503)"/><path d="M0-208.032v1.968H38.656l.748-.971A21.621,21.621,0,0,1,41.188-209l1.049-1H0Z" transform="translate(0 -267.777)"/><path d="M309.17-209.729a8.458,8.458,0,0,0-6.723,6.017,8.409,8.409,0,0,0,5.8,10.373,8.409,8.409,0,0,0,10.373-5.8,8.432,8.432,0,0,0-6.94-10.622A8.784,8.784,0,0,0,309.17-209.729Zm2.567,4.693v2.407h4.814v2.407h-7.22v-7.22h2.407Z" transform="translate(-259.883 -268.921)"/><path d="M492.383-209.475c.327.292.851.816,1.178,1.178l.595.653V-210H491.8Z" transform="translate(-434.44 -266.777)"/><path d="M0-148.032v1.968H35.784l.157-.958a17.56,17.56,0,0,1,.459-1.968l.3-1.01H0Z" transform="translate(0 -319.906)"/></g></svg>