<svg xmlns="http://www.w3.org/2000/svg" width="14.466" height="14.478" viewBox="0 0 14.466 14.478"><g transform="translate(-7.415 -7.416)"><path d="M139.89,126.922a.834.834,0,0,0-1.179,0l-5.3,5.305-5.3-5.305a.834.834,0,1,0-1.2,1.158l.02.021,5.305,5.3-5.305,5.3a.834.834,0,1,0,1.158,1.2l.021-.02,5.3-5.3,5.3,5.3a.834.834,0,0,0,1.179-1.179l-5.3-5.3,5.3-5.3a.834.834,0,0,0,0-1.179Zm0,0" transform="translate(-118.751 -118.751)" fill="#fff"/><path d="M127.5,140.645a1.334,1.334,0,0,1-.93-2.291l4.948-4.948-4.978-4.978a1.334,1.334,0,0,1,1.916-1.856l4.948,4.948,4.951-4.951a1.334,1.334,0,0,1,1.886,0v0a1.336,1.336,0,0,1,0,1.885l-4.952,4.952,4.961,4.961a1.334,1.334,0,0,1-.969,2.251h0a1.329,1.329,0,0,1-.917-.365l-.01-.01-4.951-4.951-4.979,4.978A1.328,1.328,0,0,1,127.5,140.645Zm-.222-12.894,5.3,5.3v.707l-5.311,5.311a.334.334,0,0,0,.464.48l.018-.017,5.3-5.3h.707l5.3,5.3a.333.333,0,0,0,.226.088h0a.334.334,0,0,0,.246-.56l-5.3-5.3v-.707l5.3-5.3a.334.334,0,0,0,0-.472v0a.334.334,0,0,0-.471,0l-5.3,5.3h-.707l-5.311-5.312a.334.334,0,0,0-.48.464Z" transform="translate(-118.751 -118.751)" fill="#fff"/></g></svg>