<svg xmlns="http://www.w3.org/2000/svg" width="102" height="61.702" viewBox="0 0 102 61.702"><g transform="translate(-1 1)"><path d="M42744.125,130454.109h.406l-.379,1.547a.673.673,0,0,0,.035.531.469.469,0,0,0,.422.156.773.773,0,0,0,.508-.156,1.019,1.019,0,0,0,.281-.531l.375-1.547h.406l-.383,1.594a1.245,1.245,0,0,1-.445.766,1.261,1.261,0,0,1-.828.266.831.831,0,0,1-.707-.25.922.922,0,0,1-.066-.781l.375-1.594Zm48.2,2.563.609-2.562h1.391l-.086.359h-.984l-.148.641h.98l-.09.359h-.984l-.2.828h.984l-.086.375Zm-.039-1.937a.834.834,0,0,0-.312-.234,1.013,1.013,0,0,0-.391-.062,1.125,1.125,0,0,0-.727.25,1.316,1.316,0,0,0-.426.7.813.813,0,0,0,.09.688.607.607,0,0,0,.563.266,1.058,1.058,0,0,0,.438-.078,2.041,2.041,0,0,0,.445-.234l-.113.453a1.421,1.421,0,0,1-.4.188,1.968,1.968,0,0,1-.434.063,1.068,1.068,0,0,1-.508-.109.853.853,0,0,1-.359-.281.823.823,0,0,1-.18-.437,1.242,1.242,0,0,1,.031-.516,1.708,1.708,0,0,1,.219-.531,1.672,1.672,0,0,1,.391-.437,1.567,1.567,0,0,1,.5-.281,1.6,1.6,0,0,1,.539-.094,1.2,1.2,0,0,1,.41.063,1.5,1.5,0,0,1,.336.188Zm-3.953.922h.7l-.117-.578c0-.047-.008-.094-.008-.141a.947.947,0,0,1-.008-.156.967.967,0,0,1-.086.156.784.784,0,0,1-.074.141l-.4.578Zm.883,1.016-.125-.672h-.992l-.445.672h-.422l1.844-2.672.566,2.672Zm-3.352,0,.609-2.562h1.391l-.078.359h-.988l-.152.625h.984l-.086.359h-.984l-.289,1.2h-.406v.016Zm-1.2-1.484h.074a.783.783,0,0,0,.445-.078.392.392,0,0,0,.172-.266c.031-.141.02-.25-.043-.3a.609.609,0,0,0-.4-.094h-.074l-.172.734Zm-.1.328-.27,1.141h-.383l.609-2.562h.563a1.137,1.137,0,0,1,.375.047.437.437,0,0,1,.211.094.418.418,0,0,1,.117.25.783.783,0,0,1-.008.328.891.891,0,0,1-.266.469.821.821,0,0,1-.477.219l.578,1.156h-.453l-.555-1.141Zm-2.5,1.156.609-2.562h1.391l-.078.359h-.984l-.156.641h.988l-.09.359h-.984l-.2.828h.984l-.094.375Zm-.441-2.219-.527,2.2h-.406l.527-2.2h-.66l.082-.359h1.727l-.082.359Zm-4.137,2.219.641-2.672,1.2,1.563.094.141c.031.047.066.109.1.172l.43-1.766h.371l-.633,2.656-1.23-1.594-.094-.141a.42.42,0,0,1-.078-.156l-.426,1.781h-.379v.016Zm-.984,0,.609-2.562h.4l-.609,2.563Zm-2.992-.516.359-.156a.377.377,0,0,0,.109.266.513.513,0,0,0,.293.078.508.508,0,0,0,.309-.094.462.462,0,0,0,.172-.281c.039-.141-.051-.281-.266-.391a.271.271,0,0,0-.07-.047,1.263,1.263,0,0,1-.457-.375.543.543,0,0,1-.039-.406.86.86,0,0,1,.332-.5.882.882,0,0,1,.59-.2.858.858,0,0,1,.438.109.41.41,0,0,1,.184.313l-.355.172a.4.4,0,0,0-.121-.187.335.335,0,0,0-.187-.062.548.548,0,0,0-.281.094.441.441,0,0,0-.148.234c-.039.156.07.3.313.438a.061.061,0,0,0,.047.016,1.189,1.189,0,0,1,.422.344.566.566,0,0,1,.039.422.972.972,0,0,1-.359.578,1.062,1.062,0,0,1-.656.219.659.659,0,0,1-.484-.156.468.468,0,0,1-.18-.422Zm-.426-1.7-.527,2.2h-.406l.527-2.2h-.66l.078-.359h1.727l-.078.359Zm-4.133,2.219.637-2.672,1.2,1.563.094.141c.035.047.066.109.105.172l.426-1.766h.371l-.637,2.656-1.227-1.594a1.465,1.465,0,0,1-.094-.141.369.369,0,0,1-.078-.156l-.43,1.781h-.371v.016Zm-1.855,0,.609-2.562h1.391l-.082.359h-.98l-.156.641h.984l-.09.359h-.98l-.2.828h.984l-.09.375Zm-.672-1.266c0-.016.008-.078.016-.172.008-.078.016-.125.023-.187-.027.063-.055.125-.086.188-.031.047-.066.109-.109.172l-.98,1.359-.316-1.375a1.16,1.16,0,0,1-.031-.172,1.059,1.059,0,0,1-.016-.156c-.012.047-.031.109-.047.172-.023.047-.047.109-.078.172l-.57,1.266h-.375l1.227-2.672.344,1.609a1.285,1.285,0,0,1,.023.141c.008.047.016.125.031.219a2.873,2.873,0,0,1,.18-.281.775.775,0,0,0,.043-.078l1.105-1.609-.039,2.672h-.375l.031-1.266Zm-3.867,1.266.281-1.172-.508-1.391h.422l.32.875.023.094c.016.031.02.078.031.109.027-.031.055-.078.078-.109a.492.492,0,0,1,.078-.109l.742-.859h.406l-1.187,1.375-.281,1.172h-.406v.016Zm-1.887-1.016h.691l-.113-.578c0-.047-.012-.094-.012-.141a.947.947,0,0,1-.008-.156.733.733,0,0,1-.082.156c-.027.063-.051.094-.074.141l-.4.578Zm.875,1.016-.125-.672h-.992l-.441.672h-.426l1.84-2.672.57,2.672Zm-2.543-1.5h.1a.886.886,0,0,0,.469-.078.387.387,0,0,0,.18-.266c.031-.141.012-.234-.055-.281a.667.667,0,0,0-.418-.078h-.1l-.18.7Zm-.109.344-.273,1.156h-.383l.609-2.562h.617a1.28,1.28,0,0,1,.395.031.412.412,0,0,1,.2.094.425.425,0,0,1,.125.25.79.79,0,0,1-.012.328,1.212,1.212,0,0,1-.145.344,1.057,1.057,0,0,1-.242.234.718.718,0,0,1-.25.094,1.41,1.41,0,0,1-.406.031Zm-3.789.766h.344a2.821,2.821,0,0,0,.43-.031,1.352,1.352,0,0,0,.273-.125,1.14,1.14,0,0,0,.285-.312,1.384,1.384,0,0,0,.172-.437,1.069,1.069,0,0,0,.031-.422.575.575,0,0,0-.137-.312.411.411,0,0,0-.223-.125,1.574,1.574,0,0,0-.453-.047h-.293l-.43,1.813Zm-.492.391.605-2.562h.543a3.885,3.885,0,0,1,.742.047.77.77,0,0,1,.332.188.869.869,0,0,1,.223.438,1.581,1.581,0,0,1-.031.609,1.929,1.929,0,0,1-.25.594,1.79,1.79,0,0,1-.437.438,1.325,1.325,0,0,1-.414.188,3.461,3.461,0,0,1-.664.047h-.648v.016Zm-1.863,0,.609-2.562h1.387l-.078.359h-.984l-.156.641h.988l-.09.359h-.984l-.2.828h.984l-.094.375Zm-.988,0,.609-2.562h.406l-.605,2.563Zm-1.836,0,.609-2.562h1.391l-.086.359h-.984l-.148.625h.98l-.086.359h-.988l-.281,1.2h-.406v.016Zm-.984,0,.609-2.562h.406l-.609,2.563Zm-2.809,0,.637-2.672,1.2,1.563c.031.047.066.094.1.141s.066.109.1.172l.43-1.766h.375l-.637,2.656-1.23-1.594-.094-.141a.42.42,0,0,1-.078-.156l-.426,1.781h-.375v.016Z" transform="translate(-42731.875 -130414.867)" fill-rule="evenodd"/><path d="M49321.391,55732.02H49318l4.715-17.02h3.391Zm-28.18-1.066a1.56,1.56,0,0,1-1.5,1.145h-17.48a1.23,1.23,0,0,1-1.066-.488,1.346,1.346,0,0,1-.145-1.2l4.266-15.359h3.391l-3.809,13.719h13.563l3.809-13.719h3.395l-4.422,15.906Zm26.422-15.418a1.256,1.256,0,0,0-1.09-.488h-18.633l-.918,3.336h16.949l-.992,3.563h-13.559v-.008H49298l-2.812,10.16h3.395l1.883-6.816h15.242a2.145,2.145,0,0,0,1.344-.484,2.261,2.261,0,0,0,.824-1.207l1.887-6.812a1.379,1.379,0,0,0-.129-1.242Z" transform="translate(-49261.16 -55697.828)" fill-rule="evenodd"/><path d="M256234.938,55833.008l9.906,19.7-20.812,19.719,2.469-8.937,11.406-10.781-5.437-10.766Z" transform="translate(-256150.672 -55823.258)" fill="#0e8635" fill-rule="evenodd"/><path d="M244720.938,55833.008l9.938,19.7-20.875,19.719Z" transform="translate(-244643.656 -55823.258)" fill="#e97208" fill-rule="evenodd"/><path d="M11.41,0H92.59A9.434,9.434,0,0,1,102,9.41V50.292a9.435,9.435,0,0,1-9.41,9.41H11.41A9.434,9.434,0,0,1,2,50.292V9.41A9.434,9.434,0,0,1,11.41,0ZM92.59,3.243H11.41A6.19,6.19,0,0,0,5.243,9.41V50.293a6.19,6.19,0,0,0,6.167,6.167H92.59a6.191,6.191,0,0,0,6.167-6.167V9.41A6.19,6.19,0,0,0,92.59,3.244Z"/><path d="M11.41-1H92.59A10.434,10.434,0,0,1,103,9.41V50.292A10.435,10.435,0,0,1,92.59,60.7H11.41A10.434,10.434,0,0,1,1,50.292V9.41A10.434,10.434,0,0,1,11.41-1ZM92.59,58.7a8.435,8.435,0,0,0,8.41-8.41V9.41A8.434,8.434,0,0,0,92.59,1H11.41A8.434,8.434,0,0,0,3,9.41V50.292a8.434,8.434,0,0,0,8.41,8.41ZM11.41,2.243H93.59v.07a7.2,7.2,0,0,1,6.167,7.1V50.293a7.191,7.191,0,0,1-7.167,7.167H11.41a7.19,7.19,0,0,1-7.167-7.167V9.41A7.19,7.19,0,0,1,11.41,2.243Zm80.18,2H11.41A5.19,5.19,0,0,0,6.243,9.41V50.293a5.19,5.19,0,0,0,5.167,5.167H92.59a5.191,5.191,0,0,0,5.167-5.167V9.41A5.19,5.19,0,0,0,92.59,4.244Z"/></g></svg>