<svg xmlns="http://www.w3.org/2000/svg" width="29" height="29" viewBox="0 0 29 29"><g transform="translate(-3.5 -3.5)"><path d="M7.5,3.5h21a4,4,0,0,1,4,4v21a4,4,0,0,1-4,4H7.5a4,4,0,0,1-4-4V7.5A4,4,0,0,1,7.5,3.5Zm21,27a2,2,0,0,0,2-2V7.5a2,2,0,0,0-2-2H7.5a2,2,0,0,0-2,2v21a2,2,0,0,0,2,2Z" fill="#018c6a"/><path d="M12.75,9.5A3.25,3.25,0,1,1,9.5,12.75,3.254,3.254,0,0,1,12.75,9.5Zm0,4.5a1.25,1.25,0,1,0-1.25-1.25A1.251,1.251,0,0,0,12.75,14Z" fill="#018c6a"/><path d="M7.5,32.5a1,1,0,0,1-.707-1.707l16.5-16.5a1,1,0,0,1,1.414,0l7.5,7.5a1,1,0,1,1-1.414,1.414L24,16.414,8.207,32.207A1,1,0,0,1,7.5,32.5Z" fill="#018c6a"/></g></svg>