<svg width="20" height="18" viewBox="0 0 20 18" fill="none" xmlns="http://www.w3.org/2000/svg">
<path d="M16.9231 4.46088H3.07692C1.92987 4.46088 1 5.39075 1 6.5378V14.8455C1 15.9925 1.92987 16.9224 3.07692 16.9224H16.9231C18.0701 16.9224 19 15.9925 19 14.8455V6.5378C19 5.39075 18.0701 4.46088 16.9231 4.46088Z" stroke="white" stroke-width="1.53846" stroke-linejoin="round"/>
<path d="M16.7223 4.46084V3.16277C16.7222 2.84439 16.6518 2.52997 16.5162 2.24192C16.3806 1.95388 16.1831 1.69931 15.9378 1.49639C15.6925 1.29347 15.4054 1.14719 15.097 1.068C14.7886 0.988807 14.4666 0.978647 14.1538 1.03825L2.75846 2.9832C2.2636 3.0775 1.81716 3.34154 1.49615 3.72978C1.17513 4.11802 0.999659 4.60611 1 5.10988V7.23007" stroke="white" stroke-width="1.53846" stroke-linejoin="round"/>
<path d="M14.8462 12.0762C14.5723 12.0762 14.3046 11.995 14.0769 11.8429C13.8492 11.6907 13.6717 11.4745 13.5669 11.2215C13.4621 10.9685 13.4347 10.6901 13.4882 10.4215C13.5416 10.1529 13.6735 9.90619 13.8671 9.71255C14.0607 9.51891 14.3074 9.38704 14.576 9.33361C14.8446 9.28019 15.123 9.30761 15.376 9.41241C15.629 9.5172 15.8453 9.69467 15.9974 9.92237C16.1496 10.1501 16.2308 10.4178 16.2308 10.6916C16.2308 11.0588 16.0849 11.411 15.8252 11.6707C15.5656 11.9304 15.2134 12.0762 14.8462 12.0762Z" fill="white"/>
</svg>
