<svg width="22" height="16" viewBox="0 0 22 16" fill="none" xmlns="http://www.w3.org/2000/svg">
<path fill-rule="evenodd" clip-rule="evenodd" d="M0 2.66667C0 1.95942 0.280952 1.28115 0.781049 0.781048C1.28115 0.280951 1.95942 0 2.66667 0H18.6667C19.3739 0 20.0522 0.280951 20.5523 0.781048C21.0524 1.28115 21.3333 1.95942 21.3333 2.66667V13.3333C21.3333 14.0406 21.0524 14.7189 20.5523 15.219C20.0522 15.719 19.3739 16 18.6667 16H2.66667C1.95942 16 1.28115 15.719 0.781049 15.219C0.280952 14.7189 0 14.0406 0 13.3333V2.66667ZM2.66667 1.33333C2.31304 1.33333 1.97391 1.47381 1.72386 1.72386C1.47381 1.97391 1.33333 2.31304 1.33333 2.66667V4H20V2.66667C20 2.31304 19.8595 1.97391 19.6095 1.72386C19.3594 1.47381 19.0203 1.33333 18.6667 1.33333H2.66667ZM20 6.66667H1.33333V13.3333C1.33333 13.687 1.47381 14.0261 1.72386 14.2761C1.97391 14.5262 2.31304 14.6667 2.66667 14.6667H18.6667C19.0203 14.6667 19.3594 14.5262 19.6095 14.2761C19.8595 14.0261 20 13.687 20 13.3333V6.66667Z" fill="white"/>
<path d="M2.66675 10.6666C2.66675 10.313 2.80722 9.97389 3.05727 9.72384C3.30732 9.47379 3.64646 9.33331 4.00008 9.33331H5.33341C5.68704 9.33331 6.02618 9.47379 6.27622 9.72384C6.52627 9.97389 6.66675 10.313 6.66675 10.6666V12C6.66675 12.3536 6.52627 12.6927 6.27622 12.9428C6.02618 13.1928 5.68704 13.3333 5.33341 13.3333H4.00008C3.64646 13.3333 3.30732 13.1928 3.05727 12.9428C2.80722 12.6927 2.66675 12.3536 2.66675 12V10.6666Z" fill="white"/>
</svg>
