<svg width="74" height="84" viewBox="0 0 74 84" fill="none" xmlns="http://www.w3.org/2000/svg">
<path d="M23.2604 43.7115C24.9036 32.2116 42.9735 17.4282 42.9735 17.4282C42.9735 17.4282 61.0434 4.28662 72.5418 4.28662C72.5418 4.28662 72.5418 28.9266 57.7569 45.3532C57.7569 45.3532 57.7569 35.4967 54.4719 32.2116" stroke="white" stroke-width="2.0022" stroke-miterlimit="10" stroke-linecap="round" stroke-linejoin="round"/>
<path d="M41.3315 10.8566C41.3315 4.28504 36.4018 1 36.4018 1C26.5452 7.57154 26.5452 27.2832 24.9034 37.1398C24.2883 40.8364 23.9017 42.4533 22.9687 43.1738C21.4119 44.3777 18.3319 43.0948 10.1186 44.8054C-3.02305 47.5441 1.90523 61.7798 1.90523 61.7798C11.7618 51.9232 15.0468 58.4947 15.0468 58.4947C19.9751 73.2796 29.8317 71.6363 29.8317 71.6363C31.4735 78.2079 29.8317 81.4929 29.8317 81.4929C34.76 86.4212 69.2566 76.5646 52.1445 75.4691C35.0324 74.3751 36.4018 60.1395 36.4018 60.1395C42.4651 56.7709 47.5472 53.2779 51.8032 49.76C51.8032 49.76 52.8284 46.9978 49.5434 38.7845" stroke="white" stroke-width="2.0022" stroke-miterlimit="10" stroke-linecap="round" stroke-linejoin="round"/>
</svg>
