<svg width="14" height="14" viewBox="0 0 14 14" fill="none" xmlns="http://www.w3.org/2000/svg">
<path d="M1.57104 7.30469H9.01001C9.13534 7.30469 9.23828 7.26217 9.31885 7.17712C9.39941 7.09208 9.4397 6.98914 9.4397 6.86829C9.4397 6.74744 9.39941 6.64673 9.31885 6.56616C9.23828 6.4856 9.13534 6.44531 9.01001 6.44531H1.5979L3.15552 4.8877C3.23608 4.80713 3.27637 4.70642 3.27637 4.58557C3.27637 4.46472 3.23608 4.36401 3.15552 4.28345C3.09285 4.22974 3.02572 4.19169 2.9541 4.16931C2.88249 4.14693 2.80863 4.14693 2.73254 4.16931C2.65645 4.19169 2.59155 4.22974 2.53784 4.28345L0 6.88843L2.53784 9.49341C2.5826 9.52922 2.63184 9.55831 2.68555 9.58069C2.73926 9.60307 2.79297 9.61426 2.84668 9.61426C2.96305 9.61426 3.066 9.57397 3.15552 9.49341C3.18237 9.46655 3.20475 9.43522 3.22266 9.39941C3.24056 9.36361 3.25399 9.3278 3.26294 9.29199C3.27189 9.25618 3.27637 9.22038 3.27637 9.18457C3.27637 9.14876 3.27189 9.11296 3.26294 9.07715C3.25399 9.04134 3.24056 9.00553 3.22266 8.96973C3.20475 8.93392 3.18237 8.90259 3.15552 8.87573L1.57104 7.30469ZM12.8906 0H5.58594C5.34424 0 5.14058 0.0828044 4.97498 0.248413C4.80937 0.414022 4.72656 0.617676 4.72656 0.859375V4.72656H5.58594V1.38306C5.58594 1.29354 5.60832 1.2085 5.65308 1.12793C5.69784 1.04736 5.7605 0.982463 5.84106 0.933228C5.92163 0.883993 6.01115 0.859375 6.10962 0.859375H12.3535C12.4967 0.859375 12.6176 0.910848 12.7161 1.01379C12.8145 1.11674 12.8638 1.23983 12.8638 1.38306L12.8772 12.3669C12.8772 12.5102 12.828 12.6333 12.7295 12.7362C12.631 12.8392 12.5102 12.8906 12.3669 12.8906H6.10962C5.96639 12.8906 5.8433 12.8392 5.74036 12.7362C5.63741 12.6333 5.58594 12.5102 5.58594 12.3669V9.01001H4.72656V12.8906C4.72656 13.1323 4.80937 13.336 4.97498 13.5016C5.14058 13.6672 5.34424 13.75 5.58594 13.75H12.8906C12.9443 13.75 13.0003 13.7433 13.0585 13.7299C13.1167 13.7164 13.1704 13.7008 13.2196 13.6829C13.2688 13.665 13.3181 13.6403 13.3673 13.609C13.4165 13.5777 13.4591 13.5419 13.4949 13.5016C13.5307 13.4613 13.5642 13.4188 13.5956 13.374C13.6269 13.3293 13.6538 13.28 13.6761 13.2263C13.6985 13.1726 13.7164 13.1189 13.7299 13.0652C13.7433 13.0115 13.75 12.9533 13.75 12.8906V0.859375C13.75 0.510254 13.5933 0.255127 13.28 0.0939941C13.1547 0.0313314 13.0249 0 12.8906 0Z" fill="#2366B5"/>
</svg>
