<svg width="21" height="22" viewBox="0 0 21 22" fill="none" xmlns="http://www.w3.org/2000/svg">
<path d="M18.8829 11.3052V10.7216V10.1302L20.3575 8.83996C20.6293 8.60038 20.8077 8.27243 20.8611 7.91406C20.9145 7.55569 20.8395 7.18998 20.6493 6.88156L18.8369 3.80956C18.7022 3.57629 18.5085 3.38254 18.2753 3.24774C18.0421 3.11294 17.7776 3.04184 17.5082 3.04156C17.3413 3.04028 17.1753 3.06622 17.0167 3.11836L15.1505 3.74812C14.8283 3.53401 14.4921 3.34158 14.1444 3.17212L13.7527 1.23676C13.6825 0.883179 13.4901 0.565561 13.2093 0.33951C12.9285 0.113458 12.5771 -0.00662491 12.2167 0.000282187H8.62246C8.26204 -0.00662491 7.91067 0.113458 7.62986 0.33951C7.34905 0.565561 7.15669 0.883179 7.08646 1.23676L6.69478 3.17212C6.34452 3.34154 6.00586 3.53396 5.68102 3.74812L3.85318 3.08764C3.6929 3.04588 3.52692 3.03032 3.36166 3.04156C3.09231 3.04184 2.82776 3.11294 2.59456 3.24774C2.36136 3.38254 2.1677 3.57629 2.03302 3.80956L0.220544 6.88156C0.0412828 7.18952 -0.02533 7.55022 0.0321146 7.9019C0.0895591 8.25357 0.267487 8.57433 0.535424 8.80924L1.98694 10.1379V11.3129L0.535424 12.6032C0.259918 12.8397 0.0771241 13.1662 0.0194805 13.5247C-0.0381631 13.8832 0.033072 14.2506 0.220544 14.5616L2.03302 17.6336C2.1677 17.8668 2.36136 18.0606 2.59456 18.1954C2.82776 18.3302 3.09231 18.4013 3.36166 18.4016C3.52859 18.4028 3.6946 18.3769 3.85318 18.3248L5.71942 17.695C6.04163 17.9091 6.37773 18.1015 6.7255 18.271L7.11718 20.2064C7.18741 20.5599 7.37977 20.8776 7.66058 21.1036C7.94139 21.3297 8.29276 21.4497 8.65318 21.4428H12.2781C12.6386 21.4497 12.9899 21.3297 13.2707 21.1036C13.5516 20.8776 13.7439 20.5599 13.8141 20.2064L14.2058 18.271C14.5561 18.1016 14.8947 17.9092 15.2196 17.695L17.0781 18.3248C17.2367 18.3769 17.4027 18.4028 17.5697 18.4016C17.839 18.4013 18.1036 18.3302 18.3368 18.1954C18.57 18.0606 18.7636 17.8668 18.8983 17.6336L20.6493 14.5616C20.8286 14.2536 20.8952 13.8929 20.8378 13.5412C20.7803 13.1895 20.6024 12.8688 20.3345 12.6339L18.8829 11.3052ZM17.5082 16.8656L14.874 15.9747C14.2573 16.497 13.5526 16.9053 12.7927 17.1804L12.2474 19.9376H8.62246L8.07718 17.2112C7.32333 16.9282 6.62237 16.5206 6.00358 16.0054L3.36166 16.8656L1.54918 13.7936L3.63814 11.9504C3.49614 11.1554 3.49614 10.3415 3.63814 9.54652L1.54918 7.64956L3.36166 4.57756L5.9959 5.46844C6.61256 4.94612 7.31733 4.53782 8.07718 4.26268L8.62246 1.50556H12.2474L12.7927 4.23196C13.5466 4.51491 14.2475 4.9225 14.8663 5.43772L17.5082 4.57756L19.3207 7.64956L17.2317 9.49276C17.3737 10.2877 17.3737 11.1016 17.2317 11.8966L19.3207 13.7936L17.5082 16.8656Z" fill="white"/>
<path d="M10.4349 15.3296C9.52353 15.3296 8.63262 15.0593 7.87484 14.553C7.11706 14.0467 6.52644 13.327 6.17767 12.485C5.8289 11.643 5.73765 10.7165 5.91545 9.82261C6.09325 8.92875 6.53212 8.10768 7.17656 7.46324C7.821 6.8188 8.64206 6.37993 9.53593 6.20213C10.4298 6.02433 11.3563 6.11558 12.1983 6.46435C13.0403 6.81312 13.76 7.40374 14.2663 8.16152C14.7726 8.9193 15.0429 9.81021 15.0429 10.7216C15.0491 11.3284 14.9341 11.9304 14.7047 12.4923C14.4753 13.0541 14.1361 13.5645 13.707 13.9937C13.2779 14.4228 12.7674 14.762 12.2056 14.9914C11.6437 15.2208 11.0417 15.3357 10.4349 15.3296V15.3296ZM10.4349 7.64959C10.0289 7.64013 9.62519 7.71313 9.2482 7.86416C8.87122 8.01519 8.52878 8.24113 8.24161 8.5283C7.95445 8.81546 7.72851 9.1579 7.57748 9.53489C7.42644 9.91187 7.35345 10.3156 7.36291 10.7216C7.35345 11.1276 7.42644 11.5313 7.57748 11.9083C7.72851 12.2853 7.95445 12.6277 8.24161 12.9149C8.52878 13.202 8.87122 13.428 9.2482 13.579C9.62519 13.73 10.0289 13.803 10.4349 13.7936C10.8409 13.803 11.2446 13.73 11.6216 13.579C11.9986 13.428 12.341 13.202 12.6282 12.9149C12.9154 12.6277 13.1413 12.2853 13.2923 11.9083C13.4434 11.5313 13.5164 11.1276 13.5069 10.7216C13.5164 10.3156 13.4434 9.91187 13.2923 9.53489C13.1413 9.1579 12.9154 8.81546 12.6282 8.5283C12.341 8.24113 11.9986 8.01519 11.6216 7.86416C11.2446 7.71313 10.8409 7.64013 10.4349 7.64959Z" fill="white"/>
</svg>
