<svg width="17" height="24" viewBox="0 0 17 24" fill="none" xmlns="http://www.w3.org/2000/svg">
<path d="M16.3229 6.04857L10.5229 0.248571C10.3571 0.0828571 10.1914 0 9.94286 0H1.65714C0.745714 0 0 0.745714 0 1.65714V21.5429C0 22.4543 0.745714 23.2 1.65714 23.2H14.9143C15.8257 23.2 16.5714 22.4543 16.5714 21.5429V6.62857C16.5714 6.38 16.4886 6.21429 16.3229 6.04857ZM9.94286 1.98857L14.5829 6.62857H9.94286V1.98857ZM14.9143 21.5429H1.65714V1.65714H8.28571V6.62857C8.28571 7.54 9.03143 8.28571 9.94286 8.28571H14.9143V21.5429Z" fill="white"/>
<path d="M3.31421 16.5714H13.2571V18.2286H3.31421V16.5714Z" fill="white"/>
<path d="M3.31421 11.6H13.2571V13.2571H3.31421V11.6Z" fill="white"/>
</svg>
