<svg width="20" height="15" viewBox="0 0 20 15" fill="none" xmlns="http://www.w3.org/2000/svg">
<path d="M15.4397 5.28239C15.5131 5.12385 15.5323 4.9494 15.4949 4.78111C15.4574 4.61281 15.365 4.45824 15.2293 4.33694L10.3814 0L9.01038 1.22649L12.2032 4.08279H0V5.81757H14.5438C14.7356 5.81761 14.923 5.76679 15.0825 5.67153C15.242 5.57627 15.3663 5.44085 15.4397 5.28239Z" fill="white"/>
<path d="M4.56029 9.50814C4.48689 9.66667 4.4677 9.84113 4.50515 10.0094C4.5426 10.1777 4.63501 10.3323 4.77069 10.4536L9.61863 14.7905L10.9896 13.564L7.79677 10.7077L20 10.7077V8.97296L5.45619 8.97296C5.26444 8.97292 5.07698 9.02374 4.91751 9.119C4.75804 9.21426 4.63373 9.34968 4.56029 9.50814Z" fill="white"/>
</svg>
